Cover ::
 
http://i.minus.com/idBC9I8B5jkEN.png


Screen ::
 
http://i.minus.com/ibcvKhOsHHYBuG.png
 
http://i.minus.com/iDCob3TMnCv8A.png
 
http://i.minus.com/iKAGtqs2zqdHg.png
 
http://i.minus.com/ibetKXSCiwQX5g.png
 
http://i.minus.com/ibhtDsTyUZaDxf.png
 
http://i.minus.com/i3hZHgotDkh4t.png
 
http://i.minus.com/iub1JSJ0oXTRf.png
 
http://i.minus.com/iVhAn80HFfsx4.jpg


General Info ::
Format                           : AVI
Format/Info                      : Audio Video Interleave
File size                        : 79.6 MiB
Duration                         : 3mn 38s
Overall bit rate                 : 3 058 Kbps


Video Info ::
ID                               : 0
Format                           : AVC
Format/Info                      : Advanced Video Codec
Format profile                   : High@L5.1
Format settings, CABAC           : Yes
Format settings, ReFrames        : 2 frames
Codec ID                         : H264
Duration                         : 10s 0ms
Bit rate                         : 2 727 Kbps
Width                            : 1 280 pixels
Height                           : 544 pixels
Display aspect ratio             : 2.35:1
Frame rate                       : 30.000 fps
Color space                      : YUV
Chroma subsampling               : 4:2:0
Bit depth                        : 8 bits
Scan type                        : Progressive
Bits/(Pixel*Frame)               : 0.131
Stream size                      : 71.0 MiB (89%)


Audio Info ::
ID                               : 1
Format                           : MPEG Audio
Format version                   : Version 1
Format profile                   : Layer 3
Codec ID                         : 55
Codec ID/Hint                    : MP3
Duration                         : 3mn 38s
Bit rate mode                    : Constant
Bit rate                         : 320 Kbps
Channel(s)                       : 2 channels
Sampling rate                    : 48.0 KHz
Compression mode                 : Lossy
Stream size                      : 8.33 MiB (10%)